<?xml version="1.0" encoding="UTF-8" standalone="no"?>
<!-- Created with Inkscape (http://www.inkscape.org/) -->

<svg
   width="181.38222mm"
   height="71.956841mm"
   viewBox="0 0 181.38222 71.956841"
   version="1.1"
   id="svg5"
   xml:space="preserve"
   inkscape:version="1.2.2 (732a01da63, 2022-12-09)"
   sodipodi:docname="epilepsy-purple.svg"
   inkscape:export-filename="epilepsy-purple.png"
   inkscape:export-xdpi="1400.3578"
   inkscape:export-ydpi="1400.3578"
   xmlns:inkscape="http://www.inkscape.org/namespaces/inkscape"
   xmlns:sodipodi="http://sodipodi.sourceforge.net/DTD/sodipodi-0.dtd"
   xmlns="http://www.w3.org/2000/svg"
   xmlns:svg="http://www.w3.org/2000/svg"><sodipodi:namedview
     id="namedview7"
     pagecolor="#ffffff"
     bordercolor="#000000"
     borderopacity="0.25"
     inkscape:showpageshadow="2"
     inkscape:pageopacity="0.0"
     inkscape:pagecheckerboard="0"
     inkscape:deskcolor="#d1d1d1"
     inkscape:document-units="mm"
     showgrid="false"
     inkscape:zoom="2.8284271"
     inkscape:cx="307.06112"
     inkscape:cy="147.78532"
     inkscape:window-width="2560"
     inkscape:window-height="1369"
     inkscape:window-x="-8"
     inkscape:window-y="-8"
     inkscape:window-maximized="1"
     inkscape:current-layer="g6946" /><defs
     id="defs2"><rect
       x="118.44038"
       y="388.55518"
       width="671.7514"
       height="204.00031"
       id="rect5056" /><inkscape:path-effect
       effect="bend_path"
       id="path-effect4937"
       is_visible="true"
       lpeversion="1"
       bendpath="M -79.469264,38.928435 C -60.900982,27.09444 -45.162836,25.544849 -24.596744,25.608614"
       prop_scale="1.0919718"
       scale_y_rel="true"
       vertical="false"
       hide_knot="false"
       bendpath-nodetypes="cc" /><inkscape:path-effect
       effect="bspline"
       id="path-effect4304"
       is_visible="true"
       lpeversion="1"
       weight="33.333333"
       steps="2"
       helper_size="0"
       apply_no_weight="true"
       apply_with_weight="true"
       only_selected="false" /><inkscape:path-effect
       effect="bspline"
       id="path-effect4300"
       is_visible="true"
       lpeversion="1"
       weight="33.333333"
       steps="2"
       helper_size="0"
       apply_no_weight="true"
       apply_with_weight="true"
       only_selected="false" /></defs><g
     inkscape:groupmode="layer"
     id="layer2"
     inkscape:label="Layer 2"
     style="display:inline"
     transform="translate(-9.7709798,-76.088896)"><g
       id="g6946"
       inkscape:label="PillInside"
       transform="matrix(1.0411113,0,0,1.0016041,-1.0255355,-0.20701565)"
       style="display:inline;fill:#d40000"><g
         id="g6969"
         style="display:inline;fill:#d40000"
         inkscape:label="WhiteSide"
         transform="matrix(-0.96761748,0,0,1,194.43407,0)"><path
           id="path2549"
           style="display:inline;fill:#000000;fill-opacity:1;stroke-width:0.272246"
           d="m 67.271632,145.02147 c 0.516657,0 1.029824,-0.0134 1.540494,-0.0366 H 100.28619 V 79.255452 H 35.58482 v 1.925193 c -14.161566,3.592896 -24.568747,16.255241 -24.568747,31.409625 0,15.15437 10.407181,27.81672 24.568747,31.40961 v 0.98505 h 6.689384 c 0.510681,0.0231 1.023838,0.0366 1.540495,0.0366 z"
           inkscape:label="BGWhite-Main" /><path
           id="rect8555"
           style="display:inline;fill:#373737;fill-opacity:1;stroke-width:0.29925"
           d="m 13.795971,112.09788 v 15.20848 l 1.290344,-1.12636 14.927068,18.19178 h 70.272807 v -32.2739 z"
           inkscape:label="DWhite" /><path
           id="rect6992"
           style="display:inline;fill:#212121;fill-opacity:1;stroke-width:0.323264"
           d="m 45.592024,92.596502 v 0.0077 h -1.82304 -9.654015 -3.178276 c -10.09561,0 -18.223443,8.127278 -18.223443,18.222888 0,0.43375 0.01617,0.86384 0.04569,1.28984 h 3.178277 46.009029 3.178276 c 3.5e-5,-5.1e-4 -3.6e-5,-10e-4 0,-0.002 h 31.983394 3.178274 V 92.596502 H 97.107913 48.7703 Z"
           inkscape:label="SWhite" /><g
           id="g9729"
           inkscape:label="Decorations"><path
             id="rect9724"
             style="display:inline;fill:#b4b4b4;fill-opacity:1;stroke-width:0.310407"
             inkscape:label="alldec"
             d="m -54.422797,84.955996 c -0.655898,0 -1.183934,0.528177 -1.183934,1.184074 v 2.758714 c 0,0.655898 0.528036,1.183559 1.183934,1.183559 0.655898,0 1.183934,-0.527661 1.183934,-1.183559 V 86.14007 c 0,-0.655897 -0.528036,-1.184074 -1.183934,-1.184074 z m -17.311699,0.222368 c -0.655898,0 -1.183934,0.528177 -1.183934,1.184075 v 1.191298 h -1.17111 c -0.659691,0 -1.190602,0.53109 -1.190602,1.190782 0,0.659692 0.530911,1.190782 1.190602,1.190782 h 1.17111 v 1.191298 c 0,0.655898 0.528036,1.184074 1.183934,1.184074 0.655898,0 1.183934,-0.528176 1.183934,-1.184074 v -1.191298 h 1.170597 c 0.659691,0 1.191115,-0.53109 1.191115,-1.190782 0,-0.659692 -0.531424,-1.190782 -1.191115,-1.190782 h -1.170597 v -1.191298 c 0,-0.655898 -0.528036,-1.184075 -1.183934,-1.184075 z m 30.938225,1.879042 c -0.655898,0 -1.183934,0.528177 -1.183934,1.184075 v 2.128239 c 0,0.655897 0.528036,1.183558 1.183934,1.183558 0.655897,0 1.183933,-0.527661 1.183933,-1.183558 v -2.128239 c 0,-0.655898 -0.528036,-1.184075 -1.183933,-1.184075 z m 2.885454,4.822976 c -0.659692,0 -1.190603,0.531091 -1.190603,1.190782 0,0.659692 0.530911,1.190782 1.190603,1.190782 h 2.088812 c 0.659692,0 1.190603,-0.53109 1.190603,-1.190782 0,-0.659691 -0.530911,-1.190782 -1.190603,-1.190782 z m -7.846384,0.04644 c -0.659691,0 -1.190602,0.53109 -1.190602,1.190782 0,0.659691 0.530911,1.190781 1.190602,1.190781 h 2.0883 c 0.659691,0 1.191115,-0.53109 1.191115,-1.190781 0,-0.659692 -0.531424,-1.190782 -1.191115,-1.190782 z m -46.606882,1.184074 c -0.659691,0 -1.190602,0.531091 -1.190602,1.190782 0,0.659692 0.530911,1.190782 1.190602,1.190782 h 10.189116 c 0.659692,0 1.190603,-0.53109 1.190603,-1.190782 0,-0.659691 -0.530911,-1.190782 -1.190603,-1.190782 z m 31.484024,1.617978 c -0.659691,0 -1.190602,0.53109 -1.190602,1.190782 0,0.659691 0.530911,1.190782 1.190602,1.190782 h 3.130654 c 0.659692,0 1.190603,-0.531091 1.190603,-1.190782 0,-0.659692 -0.530911,-1.190782 -1.190603,-1.190782 z m 20.029926,0.05727 c -0.64162,0.01615 -1.153156,0.537909 -1.153156,1.183559 v 2.128239 c 0,0.655897 0.528036,1.184074 1.183934,1.184074 0.655898,0 1.183934,-0.528177 1.183934,-1.184074 v -2.128239 c 0,-0.655898 -0.528036,-1.183559 -1.183934,-1.183559 -0.01025,0 -0.02059,-2.56e-4 -0.03078,0 z m 10.009576,2.324295 c -0.659691,0 -1.191115,0.53109 -1.191115,1.190782 0,0.659691 0.531424,1.190782 1.191115,1.190782 h 7.308792 c 0.659691,0 1.191115,-0.531091 1.191115,-1.190782 0,-0.659692 -0.531424,-1.190782 -1.191115,-1.190782 z m 9.180105,13.962281 c -0.659692,0 -1.191116,0.53109 -1.191116,1.19078 0,0.6597 0.531424,1.19079 1.191116,1.19079 h 2.366842 c 0.659691,0 1.190602,-0.53109 1.190602,-1.19079 0,-0.65969 -0.530911,-1.19078 -1.190602,-1.19078 z m -5.734488,0.14034 c -0.543726,0 -0.981311,0.53109 -0.981311,1.19078 0,0.65969 0.437585,1.19078 0.981311,1.19078 0.543726,0 0.981311,-0.53109 0.981311,-1.19078 0,-0.65969 -0.437585,-1.19078 -0.981311,-1.19078 z m -0.02308,9.71302 c -0.659692,0 -1.190603,0.53109 -1.190603,1.19078 0,0.65969 0.530911,1.19079 1.190603,1.19079 h 4.595695 c 0.659691,0 1.191115,-0.5311 1.191115,-1.19079 0,-0.65969 -0.531424,-1.19078 -1.191115,-1.19078 z m -36.880465,5.07321 c -0.655898,0 -1.183934,0.52817 -1.183934,1.18407 v 2.19686 c 0,0.6559 0.528036,1.18407 1.183934,1.18407 0.655898,0 1.183934,-0.52817 1.183934,-1.18407 v -2.19686 c 0,-0.6559 -0.528036,-1.18407 -1.183934,-1.18407 z m 29.342889,1.91464 c -0.655898,0 -1.183934,0.52817 -1.183934,1.18407 v 2.19686 c 0,0.6559 0.528036,1.18408 1.183934,1.18408 0.655898,0 1.183934,-0.52818 1.183934,-1.18408 V 129.098 c 0,-0.6559 -0.528036,-1.18407 -1.183934,-1.18407 z m -26.308674,2.86499 c -0.659691,0 -1.191115,0.53109 -1.191115,1.19079 0,0.65969 0.531424,1.19078 1.191115,1.19078 h 2.0883 c 0.659691,0 1.191115,-0.53109 1.191115,-1.19078 0,-0.6597 -0.531424,-1.19079 -1.191115,-1.19079 z m -7.877162,0.0939 c -0.645331,0.0163 -1.160337,0.54089 -1.160337,1.19027 0,0.65969 0.531424,1.19078 1.191116,1.19078 h 2.088299 c 0.659692,0 1.190603,-0.53109 1.190603,-1.19078 0,-0.65969 -0.530911,-1.19027 -1.190603,-1.19027 h -2.088299 c -0.01031,0 -0.02053,-2.5e-4 -0.03078,0 z m 4.908607,2.65502 c -0.655898,0 -1.183934,0.52817 -1.183934,1.18407 v 2.19686 c 0,0.6559 0.528036,1.18407 1.183934,1.18407 0.655898,0 1.183934,-0.52817 1.183934,-1.18407 v -2.19686 c 0,-0.6559 -0.528036,-1.18407 -1.183934,-1.18407 z m -23.024129,0.81672 c -0.659692,0 -1.190603,0.53109 -1.190603,1.19079 0,0.65969 0.530911,1.19078 1.190603,1.19078 h 10.096268 c 0.659692,0 1.190603,-0.53109 1.190603,-1.19078 0,-0.6597 -0.530911,-1.19079 -1.190603,-1.19079 z"
             transform="scale(-1,1)" /></g></g><g
         id="g8832"
         style="display:inline;fill:#d40000"
         inkscape:label="BlueSide"
         transform="matrix(0.96761748,0,0,1,0.35672819,0)"><path
           id="path8826"
           style="display:inline;fill:#18122b;fill-opacity:1;stroke-width:0.272246"
           d="m 67.271632,145.02147 c 0.516657,0 1.029824,-0.0134 1.540494,-0.0366 H 100.28619 V 79.255452 H 35.58482 v 1.925193 c -14.161566,3.592896 -24.568747,16.255241 -24.568747,31.409625 0,15.15437 10.407181,27.81672 24.568747,31.40961 v 0.98505 h 6.689384 c 0.510681,0.0231 1.023838,0.0366 1.540495,0.0366 z"
           inkscape:label="BGBlue-main" /><path
           id="path8828"
           style="display:inline;fill:#443c68;fill-opacity:1;stroke-width:0.29925"
           inkscape:label="DBlue"
           d="M 13.795724 112.09788 L 13.795724 127.30614 L 15.086356 126.17986 L 29.726509 144.02198 A 0.62678754 0.4319496 0 0 1 29.74395 144.01888 A 0.62678754 0.4319496 0 0 1 30.360026 144.37178 L 100.286 144.37178 L 100.286 112.09788 L 13.795724 112.09788 z " /><path
           id="path8830"
           style="display:inline;fill:#393053;fill-opacity:1;stroke-width:0.323264"
           d="m 45.592024,92.596502 v 0.0077 h -1.82304 -9.654015 -3.178276 c -10.09561,0 -18.223443,8.127278 -18.223443,18.222888 0,0.43375 0.01617,0.86384 0.04569,1.28984 h 3.178277 46.009029 3.178276 c 3.5e-5,-5.1e-4 -3.6e-5,-10e-4 0,-0.002 h 31.983394 3.178274 V 92.596502 H 97.107913 48.7703 Z"
           inkscape:label="SBlue" /><g
           id="g3834"
           inkscape:label="Decorations"
           transform="matrix(0.62334805,0,0,0.75609757,57.314709,62.849117)"
           style="display:inline"><path
             id="rect3832"
             style="display:inline;fill:#ffffff;stroke-width:0.259099"
             inkscape:label="line"
             d="m 60.375905,28.982242 v 0.01706 H 8.7372748 c -1.8271934,0 -3.2981836,1.253188 -3.2981836,2.809991 0,1.556804 1.4709902,2.809991 3.2981836,2.809991 H 63.185174 c 0.114199,0 0.226478,-0.0048 0.337622,-0.01433 h 3.541844 v -5.622711 z m -64.958769,0.09826 c -1.7955291,0 -3.2408516,1.188129 -3.2408516,2.663964 0,1.475835 1.4453225,2.663964 3.2408516,2.663964 h 0.4236199 c 1.795529,0 3.24085156,-1.188129 3.24085156,-2.663964 0,-1.475835 -1.44532256,-2.663964 -3.24085156,-2.663964 z m -11.618493,9.520396 c -0.99818,0 -1.801977,0.688812 -1.801977,1.544199 v 1.785757 h -2.08386 c -0.99818,0 -1.801977,0.688811 -1.801977,1.544198 v 0.219723 c 0,0.855387 0.803797,1.544198 1.801977,1.544198 h 2.08386 v 1.785757 c 0,0.855388 0.803797,1.544199 1.801977,1.544199 h 0.256402 c 0.99818,0 1.801977,-0.688811 1.801977,-1.544199 v -1.785757 h 2.08386 c 0.99818,0 1.801977,-0.688811 1.801977,-1.544198 v -0.219723 c 0,-0.855387 -0.803797,-1.544198 -1.801977,-1.544198 h -2.08386 v -1.785757 c 0,-0.855387 -0.803797,-1.544199 -1.801977,-1.544199 z m -35.69794,19.732715 c -0.99818,0 -1.801977,0.830597 -1.801977,1.862182 v 2.389653 c 0,1.031585 0.803797,1.862182 1.801977,1.862182 0.99818,0 1.801181,-0.830597 1.801181,-1.862182 v -2.389653 c 0,-1.031585 -0.803001,-1.862182 -1.801181,-1.862182 z m 0.105905,10.348109 c -0.99818,0 -1.801977,0.701788 -1.801977,1.572858 0,0.871071 0.803797,1.572176 1.801977,1.572176 0.99818,0 1.801977,-0.701105 1.801977,-1.572176 0,-0.87107 -0.803797,-1.572858 -1.801977,-1.572858 z m 25.211755,14.578108 c -0.998181,0 -1.801977,0.830596 -1.801977,1.862182 v 2.390335 c 0,1.031586 0.803796,1.862182 1.801977,1.862182 0.99818,0 1.801977,-0.830596 1.801977,-1.862182 v -2.390335 c 0,-1.031586 -0.803797,-1.862182 -1.801977,-1.862182 z m 79.259922,1.742085 c -0.937518,0 -1.692091,0.754755 -1.692091,1.692273 0,0.937518 0.754573,1.692272 1.692091,1.692272 h 0.221366 c 0.937518,0 1.69209,-0.754754 1.69209,-1.692272 0,-0.937518 -0.754572,-1.692273 -1.69209,-1.692273 z m -23.332539,0.17264 c -0.99818,0 -1.801977,0.830596 -1.801977,1.862182 v 2.390334 c 0,1.031586 0.803797,1.862182 1.801977,1.862182 0.998181,0 1.801181,-0.830596 1.801181,-1.862182 v -2.390334 c 0,-1.031586 -0.803,-1.862182 -1.801181,-1.862182 z m -51.961919,4.721303 c -0.827687,0 -1.493817,0.688129 -1.493817,1.543516 0,0.855388 0.66613,1.544199 1.493817,1.544199 h 4.147016 c 0.827688,0 1.493818,-0.688811 1.493818,-1.544199 0,-0.855387 -0.66613,-1.543516 -1.493818,-1.543516 z m -12.179868,0.03071 c -0.827688,0 -1.493818,0.688811 -1.493818,1.544198 0,0.855388 0.66613,1.543516 1.493818,1.543516 h 4.147016 c 0.827688,0 1.493817,-0.688128 1.493817,-1.543516 0,-0.855387 -0.666129,-1.544198 -1.493817,-1.544198 z m 68.424967,1.883335 c -0.109807,0 -0.217373,0.0088 -0.321696,0.02457 -0.0149,0.0023 -0.02902,0.0043 -0.0438,0.0068 -0.132954,0.02306 -0.260935,0.05882 -0.381417,0.105085 -0.01339,0.0051 -0.0266,0.01029 -0.03981,0.01569 -0.60764,0.248741 -1.02481,0.777221 -1.02481,1.392031 0,0.307404 0.103933,0.593061 0.284272,0.833171 0.0078,0.01044 0.01576,0.02112 0.02389,0.03139 0.18689,0.236085 0.448565,0.425607 0.756464,0.543847 0.01339,0.0051 0.02705,0.01014 0.04061,0.01501 0.122037,0.04383 0.250473,0.07659 0.384603,0.0969 0.0149,0.0023 0.03036,0.0042 0.04539,0.0061 0.06012,0.0078 0.121198,0.01304 0.183143,0.01569 0.01549,6.65e-4 0.0306,0.001 0.04619,0.0014 0.01559,3.34e-4 0.03129,6.82e-4 0.04698,6.82e-4 h 3.51079 c 1.003954,0 1.812329,-0.688811 1.812329,-1.544198 0,-0.855388 -0.808375,-1.544199 -1.812329,-1.544199 z m -12.226849,0.03139 c -0.9821,0.02106 -1.765349,0.701494 -1.765349,1.543516 0,0.855388 0.808375,1.544199 1.812329,1.544199 h 3.51079 c 1.003954,0 1.812329,-0.688811 1.812329,-1.544199 0,-0.133654 -0.0202,-0.262699 -0.05733,-0.38622 -0.200492,-0.667015 -0.907911,-1.157296 -1.754997,-1.157296 h -3.51079 c -0.01569,0 -0.03139,-3.34e-4 -0.04698,0 z m -47.932752,1.572176 c -0.998181,0 -1.801977,0.830596 -1.801977,1.862182 v 2.390334 c 0,1.031586 0.803796,1.862182 1.801977,1.862182 0.99818,0 1.801977,-0.830596 1.801977,-1.862182 v -2.390334 c 0,-1.031586 -0.803797,-1.862182 -1.801977,-1.862182 z m 55.927383,1.914724 c -0.99818,0 -1.801977,0.830596 -1.801977,1.862182 v 2.390335 c 0,1.03158 0.803797,1.86218 1.801977,1.86218 0.998181,0 1.801181,-0.8306 1.801181,-1.86218 v -2.390335 c 0,-1.031586 -0.803,-1.862182 -1.801181,-1.862182 z"
             transform="matrix(1.0334663,0,0,1,-0.36866655,0)" /><path
             id="rect4974"
             style="display:inline;fill:#ffffff;stroke-width:0.237341"
             d="m 26.800449,92.819355 c 5.633182,-6.096758 12.035915,-7.325773 19.574153,-8.021427 1.096592,-0.101197 2.198292,0.793022 2.198292,1.894273 0,1.10125 -1.099173,2.012864 -2.198292,2.08136 -4.309267,0.268551 -9.899538,0.481546 -17.966619,8.253159 -0.268387,0.258557 -1.030816,0.576496 -1.420445,0.58678 -1.032715,0.02726 -1.987816,-0.886566 -1.987816,-1.987816 0,-1.101251 1.110804,-2.05963 1.800727,-2.806329 z"
             sodipodi:nodetypes="ssssssss"
             transform="matrix(1.59246,0,0,1.3204625,-90.904866,-82.849668)" /></g></g><path
         id="path7823"
         d="M 320.78233 406.29013 C 317.96116 406.29013 315.50843 407.28819 313.42511 409.28472 C 311.38518 411.23784 310.36547 413.97322 310.36547 417.48883 L 310.36547 496.98008 C 310.36547 500.10507 311.5158 502.75181 313.81613 504.92194 C 316.11647 507.09207 318.61211 508.17878 321.30308 508.17878 C 322.90897 508.17878 324.42782 507.74445 325.8601 506.8764 C 327.33579 506.00834 328.53089 504.72752 329.44235 503.03482 C 330.3972 501.34211 330.87302 499.32382 330.87302 496.98008 L 330.87302 416.7074 C 330.87302 413.4956 329.87476 410.95611 327.87824 409.0898 C 325.88172 407.22348 323.51669 406.29013 320.78233 406.29013 z M 288.49026 408.17902 C 286.01631 408.17902 283.86958 408.63374 282.04667 409.54519 C 280.22376 410.45665 278.79076 411.80218 277.74909 413.58169 C 276.75083 415.31779 276.2517 417.33608 276.2517 419.63642 C 276.2517 423.84647 277.40203 426.9497 279.70237 428.94623 C 282.04611 430.89934 284.97465 431.87525 288.49026 431.87525 C 291.78885 431.87525 294.48133 430.83464 296.56466 428.75131 C 298.69139 426.62458 299.75403 423.58606 299.75403 419.63642 C 299.75403 416.77185 298.73431 414.1455 296.69439 411.75835 C 294.65447 409.37121 291.91907 408.17902 288.49026 408.17902 z M 156.06961 436.17222 C 151.51233 436.17222 147.10602 437.08519 142.85256 438.9081 C 138.59911 440.73102 134.78146 443.33521 131.39606 446.72061 C 128.01065 450.10602 125.36295 454.03358 123.45323 458.50405 C 121.54352 462.97453 120.58818 467.878 120.58818 473.21652 C 120.58818 478.29462 121.86912 483.65458 124.42987 489.29692 C 127.03402 494.89586 131.13434 499.67169 136.73328 503.62133 C 142.37562 507.52757 149.34196 509.47938 157.63186 509.47938 C 163.14399 509.47938 168.28734 508.67721 173.06163 507.07131 C 177.87932 505.46541 181.74173 503.33809 184.64971 500.69053 C 187.60109 498.04297 189.07701 495.28721 189.07701 492.42264 C 189.07701 490.86014 188.64412 489.36304 187.77606 487.93075 C 185.99656 485.4134 183.86944 484.15474 181.39549 484.15474 C 180.05001 484.15474 177.5096 484.95691 173.77697 486.56281 C 170.08774 488.1253 167.13774 489.27672 164.92421 490.01456 C 162.75408 490.75241 160.14929 491.12026 157.11111 491.12026 C 154.55035 491.12026 152.20678 490.42533 150.08005 489.03645 C 147.99673 487.60416 146.32582 485.97765 145.06714 484.15474 C 143.85187 482.28843 143.24359 480.79133 143.24359 479.66285 L 183.47849 479.66285 C 185.95244 479.01182 187.64481 478.14316 188.55626 477.05809 C 189.46772 475.92963 189.92393 473.67289 189.92393 470.28749 C 189.40309 465.25278 188.20985 460.60814 186.34354 456.35468 C 184.47722 452.05783 182.06742 448.43341 179.11605 445.48202 C 176.20807 442.53065 172.7804 440.25353 168.83077 438.64763 C 164.92453 436.99833 160.67028 436.17222 156.06961 436.17222 z M 375.20906 436.17222 C 370.65178 436.17222 366.24732 437.08519 361.99386 438.9081 C 357.74041 440.73102 353.92092 443.33521 350.53551 446.72061 C 347.1501 450.10602 344.50239 454.03358 342.59268 458.50405 C 340.68296 462.97453 339.72762 467.878 339.72762 473.21652 C 339.72762 478.29462 341.00856 483.65458 343.56931 489.29692 C 346.17347 494.89586 350.27565 499.67169 355.87459 503.62133 C 361.51693 507.52757 368.4814 509.47938 376.77131 509.47938 C 382.28344 509.47938 387.42679 508.67721 392.20108 507.07131 C 397.01877 505.46541 400.88304 503.33809 403.79101 500.69053 C 406.74239 498.04297 408.21646 495.28721 408.21646 492.42264 C 408.21646 490.86014 407.78357 489.36304 406.91551 487.93075 C 405.13601 485.4134 403.00888 484.15474 400.53493 484.15474 C 399.18945 484.15474 396.65089 484.95691 392.91827 486.56281 C 389.22905 488.1253 386.27719 489.27672 384.06366 490.01456 C 381.89352 490.75241 379.28874 491.12026 376.25056 491.12026 C 373.68981 491.12026 371.34623 490.42533 369.2195 489.03645 C 367.13618 487.60416 365.46527 485.97765 364.20659 484.15474 C 362.99132 482.28843 362.38489 480.79133 362.38489 479.66285 L 402.61793 479.66285 C 405.09188 479.01182 406.78425 478.14316 407.69571 477.05809 C 408.60716 475.92963 409.06338 473.67289 409.06338 470.28749 C 408.54254 465.25278 407.3493 460.60814 405.48299 456.35468 C 403.61668 452.05783 401.20872 448.43341 398.25735 445.48202 C 395.34937 442.53065 391.91985 440.25353 387.97021 438.64763 C 384.06397 436.99833 379.80973 436.17222 375.20906 436.17222 z M 523.90639 436.17222 C 519.43592 436.17222 515.18353 437.08519 511.14709 438.9081 C 507.11064 440.68761 503.83319 443.44337 501.31584 447.176 C 498.79849 450.90863 497.54087 455.50895 497.54087 460.97769 C 497.71447 464.6235 498.79857 467.72673 500.79509 470.28749 C 502.83501 472.80484 505.24481 474.82314 508.02258 476.34223 C 510.80035 477.81792 514.20656 479.27247 518.243 480.70476 C 522.32284 482.13704 524.92763 483.11295 526.05611 483.63378 C 527.01097 484.0244 527.72654 484.56599 528.20397 485.26043 C 528.7248 485.91147 528.98602 486.51953 528.98602 487.08376 C 528.98602 488.16883 528.35629 489.12435 527.09761 489.949 C 525.83893 490.73025 524.34155 491.12026 522.60544 491.12026 C 520.3919 491.12026 517.80858 490.40494 514.8572 488.97266 C 511.602 486.84593 508.12957 485.78138 504.44034 485.78138 C 501.70598 485.78138 499.51447 486.65004 497.86518 488.38614 C 496.21587 490.12225 495.39115 492.18486 495.39115 494.57201 C 495.39115 498.26123 496.99768 501.23327 500.20948 503.49021 C 503.42128 505.70374 507.30515 507.26732 511.86242 508.17878 C 516.4197 509.04683 520.80456 509.47938 525.01461 509.47938 C 533.00069 508.48112 539.07607 506.05066 543.24271 502.18783 C 547.45277 498.28159 549.55843 493.79029 549.55843 488.71218 C 549.55843 485.37018 548.69079 482.09322 546.95468 478.88143 C 545.21858 475.66963 542.74439 472.84739 539.5326 470.41684 C 536.3642 467.94289 532.67532 466.12049 528.46527 464.94862 C 524.90625 464.21077 522.19231 463.23486 520.326 462.01959 C 518.45968 460.80432 517.52766 459.65291 517.52766 458.56784 C 517.52766 457.56958 518.17886 456.7027 519.48094 455.96485 C 520.78302 455.22701 522.25709 454.85739 523.90639 454.85739 C 525.7293 454.85739 527.24999 455.20485 528.46527 455.89929 C 532.02428 457.85241 535.40903 458.82832 538.62083 458.82832 C 541.31179 458.82832 543.48183 458.17771 545.13113 456.87563 C 546.82383 455.57355 547.67002 453.92488 547.67002 451.92836 C 547.67002 448.36934 546.47677 445.39553 544.08963 443.00839 C 541.70248 440.62124 538.68626 438.8857 535.04044 437.80064 C 531.39461 436.71557 527.68241 436.17222 523.90639 436.17222 z M 237.90522 436.4327 C 234.56321 436.4327 231.24284 437.12762 227.94425 438.5165 C 224.64564 439.86198 221.82441 441.83773 219.48067 444.44189 C 218.82963 442.22836 217.65784 440.46889 215.96514 439.16681 C 214.27244 437.86473 212.51384 437.21412 210.69092 437.21412 C 208.91142 437.21412 207.19758 437.82218 205.54829 439.03746 C 203.94239 440.25273 202.61854 442.03258 201.57687 444.37633 C 200.53521 446.67667 200.01462 449.45459 200.01462 452.70979 L 200.01462 523.86758 C 200.01462 526.55855 200.55667 528.81528 201.64173 530.63819 C 202.7702 532.5045 204.20321 533.9369 205.93931 534.93516 C 207.71882 535.93341 209.56327 536.43245 211.47298 536.43245 C 213.99033 536.43245 216.11745 535.52125 217.85356 533.69834 C 219.63307 531.91883 220.52217 529.35896 220.52217 526.01695 L 220.52217 504.14228 C 222.6489 505.53117 225.31807 506.76767 228.52986 507.85274 C 231.74166 508.9378 235.04056 509.47938 238.42597 509.47938 C 244.67595 509.47938 250.10198 507.63482 254.70265 503.9456 C 259.30333 500.25638 262.75245 495.52664 265.05279 489.75409 C 267.39653 483.93814 268.57017 477.9905 268.57017 471.91414 C 268.57017 467.70408 267.78836 463.45122 266.22587 459.15436 C 264.70678 454.81409 262.62258 450.97339 259.97502 447.63139 C 257.32746 444.28939 254.07332 441.59833 250.21049 439.55841 C 246.34766 437.47508 242.24548 436.4327 237.90522 436.4327 z M 457.04467 436.4327 C 453.70266 436.4327 450.38229 437.12762 447.0837 438.5165 C 443.78509 439.86198 440.96385 441.83773 438.62012 444.44189 C 437.96908 442.22836 436.7973 440.46889 435.10459 439.16681 C 433.41189 437.86473 431.65514 437.21412 429.83223 437.21412 C 428.05271 437.21412 426.33889 437.82218 424.68959 439.03746 C 423.08369 440.25273 421.75983 442.03258 420.71817 444.37633 C 419.67651 446.67667 419.15407 449.45459 419.15407 452.70979 L 419.15407 523.86758 C 419.15407 526.55855 419.69797 528.81528 420.78303 530.63819 C 421.91151 532.5045 423.34265 533.9369 425.07876 534.93516 C 426.85826 535.93341 428.70271 536.43245 430.61243 536.43245 C 433.12978 536.43245 435.2569 535.52125 436.993 533.69834 C 438.77251 531.91883 439.66347 529.35896 439.66347 526.01695 L 439.66347 504.14228 C 441.7902 505.53117 444.45937 506.76767 447.67116 507.85274 C 450.88296 508.9378 454.18001 509.47938 457.56542 509.47938 C 463.8154 509.47938 469.24143 507.63482 473.8421 503.9456 C 478.44278 500.25638 481.89376 495.52664 484.19409 489.75409 C 486.53783 483.93814 487.70962 477.9905 487.70962 471.91414 C 487.70962 467.70408 486.92781 463.45122 485.36532 459.15436 C 483.84623 454.81409 481.76388 450.97339 479.11632 447.63139 C 476.46875 444.28939 473.21277 441.59833 469.34994 439.55841 C 465.4871 437.47508 461.38493 436.4327 457.04467 436.4327 z M 563.09979 437.21412 C 560.62584 437.21412 558.4558 438.06062 556.58949 439.75332 C 554.72317 441.44603 553.7893 443.81178 553.7893 446.84997 C 553.7893 447.32739 553.85553 447.87074 553.98573 448.47838 C 554.15934 449.08602 554.33287 449.6923 554.50649 450.29994 C 554.6801 450.86418 554.89655 451.66812 555.15696 452.70979 C 558.02153 459.91462 560.71216 466.64227 563.22951 472.89225 C 565.74686 479.14222 567.61277 483.7851 568.82804 486.82329 C 570.08672 489.86147 571.30328 493.00902 572.47515 496.26421 C 573.69042 499.51941 574.40599 501.88516 574.62301 503.36086 L 565.24765 524.97505 C 565.11745 525.62609 564.94391 526.29886 564.7269 526.9933 C 564.55329 527.68774 564.46745 528.25148 564.46745 528.6855 C 564.46745 530.3348 564.92181 531.89661 565.83326 533.3723 C 566.78812 534.89139 568.02614 536.08535 569.54523 536.9534 C 571.10773 537.86486 572.69095 538.32134 574.29684 538.32134 C 576.51038 538.32134 578.55166 537.62642 580.41798 536.23754 C 582.32769 534.89206 583.84654 532.83122 584.975 530.05345 L 617.00577 453.75169 C 617.70021 451.84198 618.04727 449.80152 618.04727 447.63139 C 618.04727 444.63661 617.04901 442.16183 615.05249 440.20871 C 613.09938 438.21219 610.90787 437.21412 608.47733 437.21412 C 606.394 437.21412 604.41895 437.93121 602.55264 439.36349 C 600.72972 440.75238 599.40587 442.79107 598.58122 445.48202 L 584.975 477.51348 L 573.51665 444.44189 C 572.99581 442.22836 571.69342 440.46889 569.61009 439.16681 C 567.57017 437.86473 565.40013 437.21412 563.09979 437.21412 z M 287.96951 438.06111 C 285.40875 438.06111 283.17433 439.18859 281.26462 441.44553 C 279.3549 443.65906 278.39956 446.69758 278.39956 450.56042 L 278.39956 496.13309 C 278.39956 500.12613 279.3549 503.27367 281.26462 505.57402 C 283.17433 507.83095 285.40875 508.95843 287.96951 508.95843 C 290.57366 508.95843 292.87432 507.8735 294.87084 505.70337 C 296.86736 503.53324 297.86561 500.6259 297.86561 496.98008 L 297.86561 449.77899 C 297.86561 447.30504 297.36649 445.19988 296.36822 443.46378 C 295.41337 441.68427 294.15575 440.33874 292.59325 439.42728 C 291.07416 438.51583 289.532 438.06111 287.96951 438.06111 z M 155.74344 453.75169 C 158.73822 453.75169 161.38594 454.64073 163.68627 456.42024 C 165.98662 458.15635 167.87583 460.99898 169.35152 464.94862 L 142.20209 464.94862 C 143.89479 461.08578 145.93422 458.26531 148.32136 456.48581 C 150.70851 454.66289 153.18269 453.75169 155.74344 453.75169 z M 374.88475 453.75169 C 377.87953 453.75169 380.52724 454.64073 382.82758 456.42024 C 385.12791 458.15635 387.01527 460.99898 388.49097 464.94862 L 361.34339 464.94862 C 363.03609 461.08578 365.07552 458.26531 367.46267 456.48581 C 369.84981 454.66289 372.32399 453.75169 374.88475 453.75169 z M 235.2366 456.9412 C 239.27305 456.9412 242.54864 458.58987 245.06599 461.88847 C 247.62675 465.14366 248.97206 469.00652 249.10227 473.47699 C 249.10227 476.21136 248.60315 478.81556 247.60488 481.2895 C 246.65003 483.72005 245.10973 485.71619 242.98299 487.27868 C 240.89967 488.84118 238.31819 489.75415 235.2366 490.01456 C 231.41717 490.01456 228.16119 488.73374 225.47022 486.17298 C 222.77926 483.61223 221.12981 480.00997 220.52217 475.36589 C 220.52217 463.08295 225.42761 456.9412 235.2366 456.9412 z M 454.37605 456.9412 C 458.41249 456.9412 461.68995 458.58987 464.2073 461.88847 C 466.76805 465.14366 468.11337 469.00652 468.24357 473.47699 C 468.24357 476.21136 467.74444 478.81556 466.74618 481.2895 C 465.79133 483.72005 464.25103 485.71619 462.1243 487.27868 C 460.04097 488.84118 457.45764 489.75415 454.37605 490.01456 C 450.55662 490.01456 447.30063 488.73374 444.60967 486.17298 C 441.91871 483.61223 440.27111 480.00997 439.66347 475.36589 C 439.66347 463.08295 444.56706 456.9412 454.37605 456.9412 z "
         style="display:inline;fill:#ffffff;font-weight:bold;font-size:133.333px;font-family:ESF-Rounded;-inkscape-font-specification:'ESF-Rounded Bold';white-space:pre;shape-inside:url(#rect5056)"
         transform="matrix(0.26783805,0,0,0.2911696,-3.3045515,-24.680246)"
         inkscape:label="text" /></g><path
       id="rect2485"
       style="display:inline;fill:#000000;stroke-width:0.261325"
       d="m 45.749146,76.088896 c -19.932072,0 -35.9781662,16.046094 -35.9781662,35.978164 0,19.93207 16.0460942,35.97868 35.9781662,35.97868 H 155.17451 c 19.93207,0 35.97868,-16.04661 35.97868,-35.97868 0,-19.93207 -16.04661,-35.978164 -35.97868,-35.978164 z m -0.01034,3.827673 H 155.00191 c 17.87173,0 32.25901,14.387802 32.25901,32.259531 0,17.87173 -14.38728,32.25953 -32.25901,32.25953 H 45.73881 c -17.871727,0 -32.259529,-14.3878 -32.259529,-32.25953 0,-17.871729 14.387802,-32.259531 32.259529,-32.259531 z"
       inkscape:label="PillOutline" /></g></svg>
