<?xml version="1.0" encoding="UTF-8" standalone="no"?>
<!-- Created with Inkscape (http://www.inkscape.org/) -->

<svg
   width="181.38222mm"
   height="71.956841mm"
   viewBox="0 0 181.38222 71.956841"
   version="1.1"
   id="svg5"
   xml:space="preserve"
   inkscape:version="1.2.2 (732a01da63, 2022-12-09)"
   sodipodi:docname="epilepsy-purple.svg"
   inkscape:export-filename="epilepsy-purple.png"
   inkscape:export-xdpi="1400.3578"
   inkscape:export-ydpi="1400.3578"
   xmlns:inkscape="http://www.inkscape.org/namespaces/inkscape"
   xmlns:sodipodi="http://sodipodi.sourceforge.net/DTD/sodipodi-0.dtd"
   xmlns="http://www.w3.org/2000/svg"
   xmlns:svg="http://www.w3.org/2000/svg"><sodipodi:namedview
     id="namedview7"
     pagecolor="#ffffff"
     bordercolor="#000000"
     borderopacity="0.25"
     inkscape:showpageshadow="2"
     inkscape:pageopacity="0.0"
     inkscape:pagecheckerboard="0"
     inkscape:deskcolor="#d1d1d1"
     inkscape:document-units="mm"
     showgrid="false"
     inkscape:zoom="2"
     inkscape:cx="283.75"
     inkscape:cy="153"
     inkscape:window-width="2560"
     inkscape:window-height="1369"
     inkscape:window-x="-8"
     inkscape:window-y="-8"
     inkscape:window-maximized="1"
     inkscape:current-layer="g8832" /><defs
     id="defs2"><rect
       x="118.44038"
       y="388.55518"
       width="671.7514"
       height="204.00031"
       id="rect5056" /><inkscape:path-effect
       effect="bend_path"
       id="path-effect4937"
       is_visible="true"
       lpeversion="1"
       bendpath="M -79.469264,38.928435 C -60.900982,27.09444 -45.162836,25.544849 -24.596744,25.608614"
       prop_scale="1.0919718"
       scale_y_rel="true"
       vertical="false"
       hide_knot="false"
       bendpath-nodetypes="cc" /><inkscape:path-effect
       effect="bspline"
       id="path-effect4304"
       is_visible="true"
       lpeversion="1"
       weight="33.333333"
       steps="2"
       helper_size="0"
       apply_no_weight="true"
       apply_with_weight="true"
       only_selected="false" /><inkscape:path-effect
       effect="bspline"
       id="path-effect4300"
       is_visible="true"
       lpeversion="1"
       weight="33.333333"
       steps="2"
       helper_size="0"
       apply_no_weight="true"
       apply_with_weight="true"
       only_selected="false" /></defs><g
     inkscape:groupmode="layer"
     id="layer2"
     inkscape:label="Layer 2"
     style="display:inline"
     transform="translate(-9.7709798,-76.088896)"><g
       id="g6946"
       inkscape:label="PillInside"
       transform="matrix(1.0411113,0,0,1.0016041,-1.0255355,-0.20701565)"
       style="display:inline;fill:#d40000"><g
         id="g6969"
         style="display:inline;fill:#d40000"
         inkscape:label="WhiteSide"
         transform="matrix(-0.96761748,0,0,1,194.43407,0)"><path
           id="path2549"
           style="display:inline;fill:#000000;fill-opacity:1;stroke-width:0.272246"
           d="m 67.271632,145.02147 c 0.516657,0 1.029824,-0.0134 1.540494,-0.0366 H 100.28619 V 79.255452 H 35.58482 v 1.925193 c -14.161566,3.592896 -24.568747,16.255241 -24.568747,31.409625 0,15.15437 10.407181,27.81672 24.568747,31.40961 v 0.98505 h 6.689384 c 0.510681,0.0231 1.023838,0.0366 1.540495,0.0366 z"
           inkscape:label="BGWhite-Main" /><path
           id="rect8555"
           style="display:inline;fill:#373737;fill-opacity:1;stroke-width:0.29925"
           d="m 13.795971,112.09788 v 15.20848 l 1.290344,-1.12636 14.927068,18.19178 h 70.272807 v -32.2739 z"
           inkscape:label="DWhite" /><path
           id="rect6992"
           style="display:inline;fill:#212121;fill-opacity:1;stroke-width:0.323264"
           d="m 45.592024,92.596502 v 0.0077 h -1.82304 -9.654015 -3.178276 c -10.09561,0 -18.223443,8.127278 -18.223443,18.222888 0,0.43375 0.01617,0.86384 0.04569,1.28984 h 3.178277 46.009029 3.178276 c 3.5e-5,-5.1e-4 -3.6e-5,-10e-4 0,-0.002 h 31.983394 3.178274 V 92.596502 H 97.107913 48.7703 Z"
           inkscape:label="SWhite" /><g
           id="g9729"
           inkscape:label="Decorations"><path
             id="rect9724"
             style="display:inline;fill:#b4b4b4;fill-opacity:1;stroke-width:0.310407"
             inkscape:label="alldec"
             d="m -54.422797,84.955996 c -0.655898,0 -1.183934,0.528177 -1.183934,1.184074 v 2.758714 c 0,0.655898 0.528036,1.183559 1.183934,1.183559 0.655898,0 1.183934,-0.527661 1.183934,-1.183559 V 86.14007 c 0,-0.655897 -0.528036,-1.184074 -1.183934,-1.184074 z m -17.311699,0.222368 c -0.655898,0 -1.183934,0.528177 -1.183934,1.184075 v 1.191298 h -1.17111 c -0.659691,0 -1.190602,0.53109 -1.190602,1.190782 0,0.659692 0.530911,1.190782 1.190602,1.190782 h 1.17111 v 1.191298 c 0,0.655898 0.528036,1.184074 1.183934,1.184074 0.655898,0 1.183934,-0.528176 1.183934,-1.184074 v -1.191298 h 1.170597 c 0.659691,0 1.191115,-0.53109 1.191115,-1.190782 0,-0.659692 -0.531424,-1.190782 -1.191115,-1.190782 h -1.170597 v -1.191298 c 0,-0.655898 -0.528036,-1.184075 -1.183934,-1.184075 z m 30.938225,1.879042 c -0.655898,0 -1.183934,0.528177 -1.183934,1.184075 v 2.128239 c 0,0.655897 0.528036,1.183558 1.183934,1.183558 0.655897,0 1.183933,-0.527661 1.183933,-1.183558 v -2.128239 c 0,-0.655898 -0.528036,-1.184075 -1.183933,-1.184075 z m 2.885454,4.822976 c -0.659692,0 -1.190603,0.531091 -1.190603,1.190782 0,0.659692 0.530911,1.190782 1.190603,1.190782 h 2.088812 c 0.659692,0 1.190603,-0.53109 1.190603,-1.190782 0,-0.659691 -0.530911,-1.190782 -1.190603,-1.190782 z m -7.846384,0.04644 c -0.659691,0 -1.190602,0.53109 -1.190602,1.190782 0,0.659691 0.530911,1.190781 1.190602,1.190781 h 2.0883 c 0.659691,0 1.191115,-0.53109 1.191115,-1.190781 0,-0.659692 -0.531424,-1.190782 -1.191115,-1.190782 z m -46.606882,1.184074 c -0.659691,0 -1.190602,0.531091 -1.190602,1.190782 0,0.659692 0.530911,1.190782 1.190602,1.190782 h 10.189116 c 0.659692,0 1.190603,-0.53109 1.190603,-1.190782 0,-0.659691 -0.530911,-1.190782 -1.190603,-1.190782 z m 31.484024,1.617978 c -0.659691,0 -1.190602,0.53109 -1.190602,1.190782 0,0.659691 0.530911,1.190782 1.190602,1.190782 h 3.130654 c 0.659692,0 1.190603,-0.531091 1.190603,-1.190782 0,-0.659692 -0.530911,-1.190782 -1.190603,-1.190782 z m 20.029926,0.05727 c -0.64162,0.01615 -1.153156,0.537909 -1.153156,1.183559 v 2.128239 c 0,0.655897 0.528036,1.184074 1.183934,1.184074 0.655898,0 1.183934,-0.528177 1.183934,-1.184074 v -2.128239 c 0,-0.655898 -0.528036,-1.183559 -1.183934,-1.183559 -0.01025,0 -0.02059,-2.56e-4 -0.03078,0 z m 10.009576,2.324295 c -0.659691,0 -1.191115,0.53109 -1.191115,1.190782 0,0.659691 0.531424,1.190782 1.191115,1.190782 h 7.308792 c 0.659691,0 1.191115,-0.531091 1.191115,-1.190782 0,-0.659692 -0.531424,-1.190782 -1.191115,-1.190782 z m 9.180105,13.962281 c -0.659692,0 -1.191116,0.53109 -1.191116,1.19078 0,0.6597 0.531424,1.19079 1.191116,1.19079 h 2.366842 c 0.659691,0 1.190602,-0.53109 1.190602,-1.19079 0,-0.65969 -0.530911,-1.19078 -1.190602,-1.19078 z m -5.734488,0.14034 c -0.543726,0 -0.981311,0.53109 -0.981311,1.19078 0,0.65969 0.437585,1.19078 0.981311,1.19078 0.543726,0 0.981311,-0.53109 0.981311,-1.19078 0,-0.65969 -0.437585,-1.19078 -0.981311,-1.19078 z m -0.02308,9.71302 c -0.659692,0 -1.190603,0.53109 -1.190603,1.19078 0,0.65969 0.530911,1.19079 1.190603,1.19079 h 4.595695 c 0.659691,0 1.191115,-0.5311 1.191115,-1.19079 0,-0.65969 -0.531424,-1.19078 -1.191115,-1.19078 z m -36.880465,5.07321 c -0.655898,0 -1.183934,0.52817 -1.183934,1.18407 v 2.19686 c 0,0.6559 0.528036,1.18407 1.183934,1.18407 0.655898,0 1.183934,-0.52817 1.183934,-1.18407 v -2.19686 c 0,-0.6559 -0.528036,-1.18407 -1.183934,-1.18407 z m 29.342889,1.91464 c -0.655898,0 -1.183934,0.52817 -1.183934,1.18407 v 2.19686 c 0,0.6559 0.528036,1.18408 1.183934,1.18408 0.655898,0 1.183934,-0.52818 1.183934,-1.18408 V 129.098 c 0,-0.6559 -0.528036,-1.18407 -1.183934,-1.18407 z m -26.308674,2.86499 c -0.659691,0 -1.191115,0.53109 -1.191115,1.19079 0,0.65969 0.531424,1.19078 1.191115,1.19078 h 2.0883 c 0.659691,0 1.191115,-0.53109 1.191115,-1.19078 0,-0.6597 -0.531424,-1.19079 -1.191115,-1.19079 z m -7.877162,0.0939 c -0.645331,0.0163 -1.160337,0.54089 -1.160337,1.19027 0,0.65969 0.531424,1.19078 1.191116,1.19078 h 2.088299 c 0.659692,0 1.190603,-0.53109 1.190603,-1.19078 0,-0.65969 -0.530911,-1.19027 -1.190603,-1.19027 h -2.088299 c -0.01031,0 -0.02053,-2.5e-4 -0.03078,0 z m 4.908607,2.65502 c -0.655898,0 -1.183934,0.52817 -1.183934,1.18407 v 2.19686 c 0,0.6559 0.528036,1.18407 1.183934,1.18407 0.655898,0 1.183934,-0.52817 1.183934,-1.18407 v -2.19686 c 0,-0.6559 -0.528036,-1.18407 -1.183934,-1.18407 z m -23.024129,0.81672 c -0.659692,0 -1.190603,0.53109 -1.190603,1.19079 0,0.65969 0.530911,1.19078 1.190603,1.19078 h 10.096268 c 0.659692,0 1.190603,-0.53109 1.190603,-1.19078 0,-0.6597 -0.530911,-1.19079 -1.190603,-1.19079 z"
             transform="scale(-1,1)" /></g></g><g
         id="g8832"
         style="display:inline;fill:#d40000"
         inkscape:label="BlueSide"
         transform="matrix(0.96761748,0,0,1,0.35672819,0)"><path
           id="path8826"
           style="display:inline;fill:#18122b;fill-opacity:1;stroke-width:0.272246"
           d="m 67.271632,145.02147 c 0.516657,0 1.029824,-0.0134 1.540494,-0.0366 H 100.28619 V 79.255452 H 35.58482 v 1.925193 c -14.161566,3.592896 -24.568747,16.255241 -24.568747,31.409625 0,15.15437 10.407181,27.81672 24.568747,31.40961 v 0.98505 h 6.689384 c 0.510681,0.0231 1.023838,0.0366 1.540495,0.0366 z"
           inkscape:label="BGBlue-main" /><path
           id="path8828"
           style="display:inline;fill:#443c68;fill-opacity:1;stroke-width:0.29925"
           d="m 13.795971,112.09788 v 15.20848 l 1.290344,-1.12636 14.927068,18.19178 h 70.272807 v -32.2739 z"
           inkscape:label="DBlue" /><path
           id="path8830"
           style="display:inline;fill:#393053;fill-opacity:1;stroke-width:0.323264"
           d="m 45.592024,92.596502 v 0.0077 h -1.82304 -9.654015 -3.178276 c -10.09561,0 -18.223443,8.127278 -18.223443,18.222888 0,0.43375 0.01617,0.86384 0.04569,1.28984 h 3.178277 46.009029 3.178276 c 3.5e-5,-5.1e-4 -3.6e-5,-10e-4 0,-0.002 h 31.983394 3.178274 V 92.596502 H 97.107913 48.7703 Z"
           inkscape:label="SBlue" /><g
           id="g3834"
           inkscape:label="Decorations"
           transform="matrix(0.62334805,0,0,0.75609757,57.314709,62.849117)"
           style="display:inline"><path
             id="rect3832"
             style="display:inline;fill:#ffffff;stroke-width:0.259099"
             inkscape:label="line"
             d="m 60.375905,28.982242 v 0.01706 H 8.7372748 c -1.8271934,0 -3.2981836,1.253188 -3.2981836,2.809991 0,1.556804 1.4709902,2.809991 3.2981836,2.809991 H 63.185174 c 0.114199,0 0.226478,-0.0048 0.337622,-0.01433 h 3.541844 v -5.622711 z m -64.958769,0.09826 c -1.7955291,0 -3.2408516,1.188129 -3.2408516,2.663964 0,1.475835 1.4453225,2.663964 3.2408516,2.663964 h 0.4236199 c 1.795529,0 3.24085156,-1.188129 3.24085156,-2.663964 0,-1.475835 -1.44532256,-2.663964 -3.24085156,-2.663964 z m -11.618493,9.520396 c -0.99818,0 -1.801977,0.688812 -1.801977,1.544199 v 1.785757 h -2.08386 c -0.99818,0 -1.801977,0.688811 -1.801977,1.544198 v 0.219723 c 0,0.855387 0.803797,1.544198 1.801977,1.544198 h 2.08386 v 1.785757 c 0,0.855388 0.803797,1.544199 1.801977,1.544199 h 0.256402 c 0.99818,0 1.801977,-0.688811 1.801977,-1.544199 v -1.785757 h 2.08386 c 0.99818,0 1.801977,-0.688811 1.801977,-1.544198 v -0.219723 c 0,-0.855387 -0.803797,-1.544198 -1.801977,-1.544198 h -2.08386 v -1.785757 c 0,-0.855387 -0.803797,-1.544199 -1.801977,-1.544199 z m -35.69794,19.732715 c -0.99818,0 -1.801977,0.830597 -1.801977,1.862182 v 2.389653 c 0,1.031585 0.803797,1.862182 1.801977,1.862182 0.99818,0 1.801181,-0.830597 1.801181,-1.862182 v -2.389653 c 0,-1.031585 -0.803001,-1.862182 -1.801181,-1.862182 z m 0.105905,10.348109 c -0.99818,0 -1.801977,0.701788 -1.801977,1.572858 0,0.871071 0.803797,1.572176 1.801977,1.572176 0.99818,0 1.801977,-0.701105 1.801977,-1.572176 0,-0.87107 -0.803797,-1.572858 -1.801977,-1.572858 z m 25.211755,14.578108 c -0.998181,0 -1.801977,0.830596 -1.801977,1.862182 v 2.390335 c 0,1.031586 0.803796,1.862182 1.801977,1.862182 0.99818,0 1.801977,-0.830596 1.801977,-1.862182 v -2.390335 c 0,-1.031586 -0.803797,-1.862182 -1.801977,-1.862182 z m 79.259922,1.742085 c -0.937518,0 -1.692091,0.754755 -1.692091,1.692273 0,0.937518 0.754573,1.692272 1.692091,1.692272 h 0.221366 c 0.937518,0 1.69209,-0.754754 1.69209,-1.692272 0,-0.937518 -0.754572,-1.692273 -1.69209,-1.692273 z m -23.332539,0.17264 c -0.99818,0 -1.801977,0.830596 -1.801977,1.862182 v 2.390334 c 0,1.031586 0.803797,1.862182 1.801977,1.862182 0.998181,0 1.801181,-0.830596 1.801181,-1.862182 v -2.390334 c 0,-1.031586 -0.803,-1.862182 -1.801181,-1.862182 z m -51.961919,4.721303 c -0.827687,0 -1.493817,0.688129 -1.493817,1.543516 0,0.855388 0.66613,1.544199 1.493817,1.544199 h 4.147016 c 0.827688,0 1.493818,-0.688811 1.493818,-1.544199 0,-0.855387 -0.66613,-1.543516 -1.493818,-1.543516 z m -12.179868,0.03071 c -0.827688,0 -1.493818,0.688811 -1.493818,1.544198 0,0.855388 0.66613,1.543516 1.493818,1.543516 h 4.147016 c 0.827688,0 1.493817,-0.688128 1.493817,-1.543516 0,-0.855387 -0.666129,-1.544198 -1.493817,-1.544198 z m 68.424967,1.883335 c -0.109807,0 -0.217373,0.0088 -0.321696,0.02457 -0.0149,0.0023 -0.02902,0.0043 -0.0438,0.0068 -0.132954,0.02306 -0.260935,0.05882 -0.381417,0.105085 -0.01339,0.0051 -0.0266,0.01029 -0.03981,0.01569 -0.60764,0.248741 -1.02481,0.777221 -1.02481,1.392031 0,0.307404 0.103933,0.593061 0.284272,0.833171 0.0078,0.01044 0.01576,0.02112 0.02389,0.03139 0.18689,0.236085 0.448565,0.425607 0.756464,0.543847 0.01339,0.0051 0.02705,0.01014 0.04061,0.01501 0.122037,0.04383 0.250473,0.07659 0.384603,0.0969 0.0149,0.0023 0.03036,0.0042 0.04539,0.0061 0.06012,0.0078 0.121198,0.01304 0.183143,0.01569 0.01549,6.65e-4 0.0306,0.001 0.04619,0.0014 0.01559,3.34e-4 0.03129,6.82e-4 0.04698,6.82e-4 h 3.51079 c 1.003954,0 1.812329,-0.688811 1.812329,-1.544198 0,-0.855388 -0.808375,-1.544199 -1.812329,-1.544199 z m -12.226849,0.03139 c -0.9821,0.02106 -1.765349,0.701494 -1.765349,1.543516 0,0.855388 0.808375,1.544199 1.812329,1.544199 h 3.51079 c 1.003954,0 1.812329,-0.688811 1.812329,-1.544199 0,-0.133654 -0.0202,-0.262699 -0.05733,-0.38622 -0.200492,-0.667015 -0.907911,-1.157296 -1.754997,-1.157296 h -3.51079 c -0.01569,0 -0.03139,-3.34e-4 -0.04698,0 z m -47.932752,1.572176 c -0.998181,0 -1.801977,0.830596 -1.801977,1.862182 v 2.390334 c 0,1.031586 0.803796,1.862182 1.801977,1.862182 0.99818,0 1.801977,-0.830596 1.801977,-1.862182 v -2.390334 c 0,-1.031586 -0.803797,-1.862182 -1.801977,-1.862182 z m 55.927383,1.914724 c -0.99818,0 -1.801977,0.830596 -1.801977,1.862182 v 2.390335 c 0,1.03158 0.803797,1.86218 1.801977,1.86218 0.998181,0 1.801181,-0.8306 1.801181,-1.86218 v -2.390335 c 0,-1.031586 -0.803,-1.862182 -1.801181,-1.862182 z"
             transform="matrix(1.0334663,0,0,1,-0.36866655,0)" /><path
             id="rect4974"
             style="display:inline;fill:#ffffff;stroke-width:0.237341"
             d="m 26.800449,92.819355 c 5.633182,-6.096758 12.035915,-7.325773 19.574153,-8.021427 1.096592,-0.101197 2.198292,0.793022 2.198292,1.894273 0,1.10125 -1.099173,2.012864 -2.198292,2.08136 -4.309267,0.268551 -9.899538,0.481546 -17.966619,8.253159 -0.268387,0.258557 -1.030816,0.576496 -1.420445,0.58678 -1.032715,0.02726 -1.987816,-0.886566 -1.987816,-1.987816 0,-1.101251 1.110804,-2.05963 1.800727,-2.806329 z"
             sodipodi:nodetypes="ssssssss"
             transform="matrix(1.59246,0,0,1.3204625,-90.904866,-82.849668)" /></g></g><text
         xml:space="preserve"
         transform="matrix(0.26783805,0,0,0.2911696,-3.3045516,-24.680245)"
         id="text5054"
         style="font-style:normal;font-variant:normal;font-weight:bold;font-stretch:normal;font-size:133.333px;font-family:ESF-Rounded;-inkscape-font-specification:'ESF-Rounded Bold';white-space:pre;shape-inside:url(#rect5056);display:inline;fill:#ffffff"><tspan
           x="118.43945"
           y="508.69874"
           id="tspan1559">epilepsy</tspan></text></g><path
       id="rect2485"
       style="display:inline;fill:#000000;stroke-width:0.261325"
       d="m 45.749146,76.088896 c -19.932072,0 -35.9781662,16.046094 -35.9781662,35.978164 0,19.93207 16.0460942,35.97868 35.9781662,35.97868 H 155.17451 c 19.93207,0 35.97868,-16.04661 35.97868,-35.97868 0,-19.93207 -16.04661,-35.978164 -35.97868,-35.978164 z m -0.01034,3.827673 H 155.00191 c 17.87173,0 32.25901,14.387802 32.25901,32.259531 0,17.87173 -14.38728,32.25953 -32.25901,32.25953 H 45.73881 c -17.871727,0 -32.259529,-14.3878 -32.259529,-32.25953 0,-17.871729 14.387802,-32.259531 32.259529,-32.259531 z"
       inkscape:label="PillOutline" /></g></svg>
